<?xml version="1.0" standalone="no"?>
<!DOCTYPE svg PUBLIC "-//W3C//DTD SVG 20010904//EN"
 "http://www.w3.org/TR/2001/REC-SVG-20010904/DTD/svg10.dtd">
<svg version="1.0" xmlns="http://www.w3.org/2000/svg"
 width="260.000000pt" height="260.000000pt" viewBox="0 0 260.000000 260.000000"
 preserveAspectRatio="xMidYMid meet">
<metadata>
Created by potrace 1.14, written by Peter Selinger 2001-2017
</metadata>
<g transform="translate(0.000000,260.000000) scale(0.100000,-0.100000)"
fill="#000000" stroke="none">
<path d="M662 2274 c-349 -177 -638 -326 -643 -331 -5 -5 -6 -280 -2 -655 l6
-646 646 -319 646 -319 640 326 640 325 0 208 c0 114 -1 406 -3 650 l-2 443
-32 16 c-18 9 -310 153 -648 320 l-615 304 -633 -322z m1247 -48 l609 -305 7
-183 c3 -101 5 -378 3 -617 l-3 -434 -607 -309 -607 -309 -610 305 -609 305
-4 83 c-3 46 -5 322 -6 615 l-2 532 262 134 c443 227 953 487 956 487 1 0 276
-137 611 -304z"/>
<path d="M232 1309 l3 -483 518 -271 c285 -149 522 -276 525 -282 9 -13 45
-13 54 0 3 6 240 132 525 281 l518 271 3 484 c2 385 0 482 -10 478 -7 -3 -247
-108 -533 -233 -286 -125 -524 -227 -530 -227 -5 0 -244 103 -530 228 -286
125 -526 229 -533 232 -10 4 -12 -93 -10 -478z"/>
</g>
</svg>
